<svg width="53" height="53" viewBox="0 0 53 53" fill="none" xmlns="http://www.w3.org/2000/svg">
<path d="M41.6357 6.77062e-10H10.6509C7.82619 -1.59143e-05 5.11715 1.12206 3.11973 3.11938C1.12231 5.11671 0.00011404 7.82571 0 10.6504V41.6358C7.9554e-05 44.4606 1.12224 47.1697 3.11964 49.1672C5.11704 51.1647 7.8261 52.2869 10.6509 52.2871H41.6357C44.4605 52.2869 47.1696 51.1647 49.167 49.1672C51.1644 47.1697 52.2865 44.4606 52.2866 41.6358V10.6504C52.2865 7.8257 51.1643 5.11672 49.1669 3.11938C47.1695 1.12205 44.4604 -3.18265e-05 41.6357 6.77062e-10ZM10.6509 19.3653C10.6509 18.5993 10.878 17.8505 11.3036 17.2136C11.7291 16.5767 12.334 16.0803 13.0417 15.7871C13.7493 15.4939 14.5281 15.4172 15.2794 15.5666C16.0306 15.716 16.7208 16.0848 17.2624 16.6264C17.8041 17.168 18.173 17.8581 18.3225 18.6094C18.472 19.3606 18.3954 20.1394 18.1023 20.8471C17.8092 21.5548 17.3129 22.1597 16.676 22.5854C16.0392 23.011 15.2904 23.2382 14.5244 23.2383C13.4972 23.2383 12.512 22.8303 11.7856 22.1039C11.0592 21.3776 10.6511 20.3925 10.6509 19.3653ZM37.8794 36.9121C34.6883 39.8875 30.5051 41.5704 26.1426 41.6338L26.1167 41.6348C23.2289 41.6501 20.4018 40.8064 17.9946 39.211C16.899 38.5 15.9236 37.6192 15.105 36.6016C14.6444 35.9881 14.4453 35.2171 14.5512 34.4573C14.657 33.6974 15.0592 33.0103 15.6699 32.546C16.2807 32.0816 17.0503 31.8778 17.8108 31.979C18.5713 32.0802 19.2609 32.4781 19.729 33.086H19.7305C19.7349 33.0918 19.748 33.1084 19.769 33.1328C19.8164 33.1875 19.9033 33.2842 20.0264 33.4092C20.3918 33.7685 20.7907 34.0919 21.2178 34.375C22.6766 35.342 24.3926 35.8476 26.1426 35.8262C28.9614 35.744 31.6616 34.6738 33.7715 32.8028H33.771L33.7773 32.7969L33.7788 32.7988C34.3246 32.2566 35.0632 31.9531 35.8325 31.955C36.6019 31.9568 37.339 32.2639 37.8822 32.8087C38.4254 33.3536 38.7301 34.0917 38.7296 34.861C38.7291 35.6303 38.4233 36.368 37.8794 36.9121ZM37.7627 23.2383C36.9967 23.2383 36.2479 23.0112 35.6109 22.5856C34.974 22.16 34.4776 21.5552 34.1844 20.8474C33.8913 20.1397 33.8146 19.361 33.964 18.6097C34.1135 17.8584 34.4823 17.1683 35.024 16.6266C35.5657 16.085 36.2558 15.7161 37.0071 15.5667C37.7584 15.4172 38.5371 15.4939 39.2448 15.787C39.9525 16.0802 40.5574 16.5766 40.983 17.2136C41.4086 17.8505 41.6357 18.5993 41.6357 19.3653C41.6356 20.3925 41.2276 21.3776 40.5013 22.1039C39.7749 22.8302 38.7899 23.2383 37.7627 23.2383Z" fill="white"/>
</svg>
